<svg version="1.1" xmlns="http://www.w3.org/2000/svg" viewBox="0 0 894.326171875 96.501953125" width="1788.65234375" height="193.00390625" filter="invert(93%) hue-rotate(180deg)">
  <!-- svg-source:excalidraw -->
  
  <defs>
    <style class="style-fonts">
      @font-face {
        font-family: "Virgil";
        src: url("https://file%2B.vscode-resource.vscode-cdn.net/Users/ruimelo/.vscode/extensions/pomdtr.excalidraw-editor-3.7.4/public//dist/excalidraw-assets/Virgil.woff2");
      }
      @font-face {
        font-family: "Cascadia";
        src: url("https://file%2B.vscode-resource.vscode-cdn.net/Users/ruimelo/.vscode/extensions/pomdtr.excalidraw-editor-3.7.4/public//dist/excalidraw-assets/Cascadia.woff2");
      }
      @font-face {
        font-family: "Assistant";
        src: url("https://file%2B.vscode-resource.vscode-cdn.net/Users/ruimelo/.vscode/extensions/pomdtr.excalidraw-editor-3.7.4/public//dist/excalidraw-assets/Assistant-Regular.woff2");
      }
    </style>
    
  </defs>
  <g stroke-linecap="round" transform="translate(10 16.287109375) rotate(0 116.38671875 34.765625)"><path d="M17.38 0 C91.08 -0.76, 158.07 2.92, 215.39 0 M215.39 0 C223.2 3.41, 229.48 7.3, 232.77 17.38 M232.77 17.38 C235.5 25.33, 235.17 30.85, 232.77 52.15 M232.77 52.15 C235.6 65.12, 223.73 71.07, 215.39 69.53 M215.39 69.53 C149.92 70.41, 85.64 74.2, 17.38 69.53 M17.38 69.53 C6 71.81, -3.27 64.48, 0 52.15 M0 52.15 C-3.19 43.53, -3.48 31.34, 0 17.38 M0 17.38 C-3.86 7.44, 3.2 2.24, 17.38 0" stroke="#1e1e1e" stroke-width="2.5" fill="none" stroke-dasharray="1.5 8"></path></g><g transform="translate(33.396812438964844 26.052734375) rotate(0 92.98990631103516 25)"><text x="92.98990631103516" y="0" font-family="Virgil, Segoe UI Emoji" font-size="20px" fill="#1e1e1e" text-anchor="middle" style="white-space: pre;" direction="ltr" dominant-baseline="text-before-edge">Customer Lifetime </text><text x="92.98990631103516" y="25" font-family="Virgil, Segoe UI Emoji" font-size="20px" fill="#1e1e1e" text-anchor="middle" style="white-space: pre;" direction="ltr" dominant-baseline="text-before-edge">Value</text></g><g transform="translate(263.49609375 27.486328125) rotate(0 11.105995178222656 22.5)"><text x="0" y="0" font-family="Virgil, Segoe UI Emoji" font-size="36px" fill="#1e1e1e" text-anchor="start" style="white-space: pre;" direction="ltr" dominant-baseline="text-before-edge">=</text></g><g stroke-linecap="round" transform="translate(304.1015625 13.380859375) rotate(0 130.763671875 36.560546875)"><path d="M18.28 0 C105.5 -1.86, 183.74 -4.96, 243.25 0 M243.25 0 C255 3.72, 264.92 4.12, 261.53 18.28 M261.53 18.28 C263.1 25.96, 261.14 39.56, 261.53 54.84 M261.53 54.84 C260.57 63.81, 251.82 72.91, 243.25 73.12 M243.25 73.12 C175.47 73.07, 113.53 74.09, 18.28 73.12 M18.28 73.12 C4.72 71.42, 2.12 66.12, 0 54.84 M0 54.84 C0.85 36.87, -1.29 27.18, 0 18.28 M0 18.28 C2.85 6.13, 8.84 -2.21, 18.28 0" stroke="#1e1e1e" stroke-width="2.5" fill="none" stroke-dasharray="1.5 8"></path></g><g transform="translate(359.4053039550781 37.44140625) rotate(0 75.45993041992188 12.5)"><text x="75.45993041992188" y="0" font-family="Virgil, Segoe UI Emoji" font-size="20px" fill="#1e1e1e" text-anchor="middle" style="white-space: pre;" direction="ltr" dominant-baseline="text-before-edge">Customer Value</text></g><g transform="translate(587.0541610717773 23.197265625) rotate(0 10.763999938964844 22.5)"><text x="0" y="0" font-family="Virgil, Segoe UI Emoji" font-size="36px" fill="#1e1e1e" text-anchor="start" style="white-space: pre;" direction="ltr" dominant-baseline="text-before-edge">X</text></g><g stroke-linecap="round" transform="translate(622.798828125 10) rotate(0 130.763671875 36.560546875)"><path d="M18.28 0 C90.25 -5.4, 157.82 -3.1, 243.25 0 M243.25 0 C253.94 -0.1, 258.97 9.45, 261.53 18.28 M261.53 18.28 C264.43 25.41, 257.96 42.12, 261.53 54.84 M261.53 54.84 C260.89 70.85, 254.01 70.93, 243.25 73.12 M243.25 73.12 C172.48 69.85, 100.72 71.15, 18.28 73.12 M18.28 73.12 C6.45 71.84, -0.41 70.94, 0 54.84 M0 54.84 C-0.65 48.07, 3.69 35.77, 0 18.28 M0 18.28 C-3.84 2.77, 2.74 -0.91, 18.28 0" stroke="#1e1e1e" stroke-width="2.5" fill="none" stroke-dasharray="1.5 8"></path></g><g transform="translate(660.012580871582 21.560546875) rotate(0 93.54991912841797 25)"><text x="93.54991912841797" y="0" font-family="Virgil, Segoe UI Emoji" font-size="20px" fill="#1e1e1e" text-anchor="middle" style="white-space: pre;" direction="ltr" dominant-baseline="text-before-edge">Average Customer </text><text x="93.54991912841797" y="25" font-family="Virgil, Segoe UI Emoji" font-size="20px" fill="#1e1e1e" text-anchor="middle" style="white-space: pre;" direction="ltr" dominant-baseline="text-before-edge">Lifespan</text></g></svg>