<?xml version="1.0" encoding="utf-8"?>
<svg xmlns="http://www.w3.org/2000/svg" width="433" height="164" viewBox="0 0 433 164" fill="none">
<g clip-path="url(#clip0_677_12225)">
<path d="M22.08 101.2C12.99 99.36 11.39 98.07 11.39 96.04C11.39 94.01 14.5 92.39 18.46 92.39C22.42 92.39 26.31 93.65 30.4 96.24L31.23 96.76L36.3 89.61L35.4 89.03C30.42 85.77 25.08 84.26 18.6 84.26C8.94999 84.26 2.46999 89.24 2.46999 96.65C2.46999 103.15 7.39999 107.19 18 109.35C27.42 111.19 28.18 112.71 28.18 114.36C28.18 116.59 24.85 118.28 20.42 118.28C15.38 118.28 11.09 116.78 6.50999 113.42L5.72999 112.85L-0.0100098 119.67L0.88999 120.32C6.36999 124.3 13.05 126.4 20.22 126.4C30.62 126.4 37.08 121.53 37.08 113.7C37.08 107.37 32.17 103.29 22.06 101.21L22.08 101.2Z" fill="black"/>
<path d="M67.43 84.1399C55.39 84.1399 45.96 93.4699 45.96 105.38C45.96 117.29 55.14 126.52 67.31 126.52C79.48 126.52 88.77 117.38 88.77 105.27C88.77 93.1599 79.6 84.1399 67.43 84.1399ZM67.43 118.16C60.45 118.16 55.19 112.62 55.19 105.27C55.19 97.9199 60.4 92.4999 67.31 92.4999C74.22 92.4999 79.54 98.0399 79.54 105.38C79.54 112.72 74.34 118.15 67.43 118.15V118.16Z" fill="black"/>
<path d="M118.77 108.93H128.72V115.78C126.44 117.34 123.4 118.23 120.36 118.23C113.17 118.23 108.14 112.9 108.14 105.27C108.14 98.1099 113.24 92.4999 119.75 92.4999C124.44 92.4999 127.14 93.9999 129.98 96.4199L130.77 97.0999L136.44 90.3399L135.66 89.6799C131.02 85.7499 126.48 84.1399 120.01 84.1399C108.16 84.1399 98.8799 93.4699 98.8799 105.38C98.8799 117.29 107.62 126.52 120.13 126.52C128.03 126.52 133.69 123.09 137.06 120.21L137.42 119.9V102.02H118.77V108.94V108.93Z" fill="black"/>
<path d="M197.2 126.28C196.12 126.44 195.09 126.52 194.22 126.52C186.95 126.52 183.55 120.15 178.24 111.37C185.19 109.89 188.86 105.37 188.86 98.9301C188.86 90.3601 182.64 84.8201 173.02 84.8201H149.05V91.1201L154.11 91.8901V118.78L149.05 119.55V125.84H168.08V119.55L163.01 118.78V112H168.76C172.31 117.75 176.03 125.02 181.4 129.63C185.12 132.82 188.62 133.98 193.28 133.98C194.47 133.98 195.81 133.88 197.18 133.68V126.29L197.2 126.28ZM163.02 105.08V93.1101H172.47C178.57 93.1101 179.84 96.3601 179.84 99.0901C179.84 102.73 176.95 105.08 172.47 105.08H163.02Z" fill="black"/>
<path d="M227.94 84.52H220.25L205.26 118.79L200.38 119.54V125.83H218.17V119.54L214.4 118.97L216.52 113.99H231.48L233.57 118.91L229.42 119.55V125.84H247.6V119.55L242.93 118.83L227.95 84.52H227.94ZM228.52 107.07H219.44L223.98 96.38L228.52 107.07Z" fill="black"/>
<path d="M278.68 84.8101H256.38V91.1101L261.42 91.8801V118.77L256.38 119.54V125.83H275.39V119.54L270.33 118.77V111.99H277.88C288.59 111.99 294.49 107.35 294.49 98.9301C294.49 90.5101 288.28 84.8201 278.67 84.8201L278.68 84.8101ZM285.5 99.0901C285.5 102.73 282.6 105.08 278.1 105.08H270.34V93.1101H278.1C284.21 93.1101 285.5 96.3601 285.5 99.0901Z" fill="black"/>
<path d="M333.04 112.61L332.25 117.66H317V108.78H331.69V101.87H317V93.0001H331.97L332.75 98.0401H339.04V84.8101H303.03V91.1101L308.09 91.8801V118.77L303.03 119.55V125.83H339.33V112.61H333.04Z" fill="black"/>
<path d="M337.02 39.21C337.67 49.63 325.75 48.94 322.04 47.03C325.43 45.2 324.52 43.47 326.5 41.89C328.85 40 326.15 38.84 325.2 40.12C322.38 43.91 313.35 43.81 308.85 34.83C312.47 35.24 312.45 33.31 315.87 33.71C317.59 33.92 318.03 31.43 315.39 31.58C312.06 31.78 306.99 27.83 307.86 18.89C312.08 23.67 314.3 20.57 318.42 21.75C321.73 22.7 321.42 23.78 322.69 24.8C323.81 25.69 325.34 24.06 323.67 22.89C320.24 20.47 321.59 17.45 322.49 14.77C324.69 19.44 338.55 13.42 334.04 24.79C333.29 26.7 335.28 27.57 335.6 25.75C336.24 22.08 340.13 22.46 340.09 18.54C344.18 20.6 347.18 34.16 337.8 34.76C336.31 33.79 333.31 31.44 328.17 31.82C332.44 32.83 335.95 35.53 337.73 37.04C341.82 40.75 345.55 45.28 352.97 47.16C344.68 46.64 341.37 42 336.9 37.98C336.95 38.38 336.99 38.79 337.02 39.19V39.21Z" fill="#B15533"/>
<path d="M364.85 23.4299C366.927 23.4299 368.61 21.7465 368.61 19.6699C368.61 17.5933 366.927 15.9099 364.85 15.9099C362.774 15.9099 361.09 17.5933 361.09 19.6699C361.09 21.7465 362.774 23.4299 364.85 23.4299Z" fill="#B15533"/>
<path d="M367.53 15.52C369.203 15.52 370.56 14.1634 370.56 12.49C370.56 10.8165 369.203 9.45996 367.53 9.45996C365.857 9.45996 364.5 10.8165 364.5 12.49C364.5 14.1634 365.857 15.52 367.53 15.52Z" fill="#B15533"/>
<path d="M372.81 24.6201C374.677 24.6201 376.19 23.1068 376.19 21.2401C376.19 19.3734 374.677 17.8601 372.81 17.8601C370.943 17.8601 369.43 19.3734 369.43 21.2401C369.43 23.1068 370.943 24.6201 372.81 24.6201Z" fill="#B15533"/>
<path d="M373.04 17.0401C374.128 17.0401 375.01 16.1581 375.01 15.0701C375.01 13.9821 374.128 13.1001 373.04 13.1001C371.952 13.1001 371.07 13.9821 371.07 15.0701C371.07 16.1581 371.952 17.0401 373.04 17.0401Z" fill="#B15533"/>
<path d="M379.3 26.1101C380.692 26.1101 381.82 24.9818 381.82 23.5901C381.82 22.1983 380.692 21.0701 379.3 21.0701C377.908 21.0701 376.78 22.1983 376.78 23.5901C376.78 24.9818 377.908 26.1101 379.3 26.1101Z" fill="#B15533"/>
<path d="M365.1 5.19011V3.49011C360.31 4.15011 359.04 8.05011 360.05 11.3401C353.78 6.57011 350.88 10.7601 346.47 8.86011C348.23 8.84011 350.14 8.73011 351.18 8.33011C352.37 7.23011 354.67 7.19011 355.8 7.42011C356.34 6.03011 355.8 2.38011 352.13 1.95011C352.13 1.95011 351.69 3.12011 351.32 4.01011C350.94 4.93011 350.04 4.57011 350.2 3.80011C350.63 1.59011 347.71 -1.95989 343.22 1.38011C345.16 3.21011 343.93 3.73011 345.38 4.99011C346.41 5.89011 345.47 6.76011 344.68 5.86011C344.16 5.27011 343.57 4.36011 342.55 4.44011C341.38 4.53011 338.77 7.17011 337.83 7.41011C338.64 9.36011 340.81 12.2401 342.39 12.3701C343.14 12.4301 343.42 12.1801 344.17 11.5501C345.3 10.5901 346.02 11.9701 344.93 12.3401C343.28 12.9101 343.68 14.6301 341.71 14.8101C344.58 19.4001 350.57 18.0501 349.5 14.9001C349.23 14.1201 350.05 13.8501 350.55 14.4301C351.2 15.1901 352.18 16.7301 352.18 16.7301C354.29 16.5601 356.57 13.6101 355.67 11.5101C352.99 11.4601 351.31 10.2901 351.18 9.91011C356.5 9.17011 359.15 11.8201 361.82 14.3201L362.78 14.0901C358.48 8.89011 361.25 5.33011 365.13 5.19011H365.1Z" fill="#B15533"/>
<path d="M430.83 84.2301C425.4 93.9601 416.6 99.9001 414.97 101.34C410.25 105.51 410.11 108.77 409.88 111.49C410 111.42 410.13 111.35 410.25 111.29C413.85 109.42 416.97 111.52 416.73 115.31C416.51 118.71 413.69 119.1 414.11 120.96C414.48 122.57 414.33 123.45 414.16 124.38C413.96 125.44 413.28 126.05 413.45 127.2C413.62 128.42 413.77 129.12 413.73 129.99C413.63 132.34 411.92 133.36 412.05 134.41C412.15 135.2 412.39 135.81 412.13 137.66C411.79 140.13 410.44 141.54 408.22 142.58C408.16 142.61 408.09 142.64 408.03 142.67C407.92 144.73 407.84 146.06 407.83 146.22C407.62 150.02 407.52 151.75 402.31 151.75C401 151.75 400.02 151.63 399.27 151.42C397.83 152.74 395.34 154.42 394.24 155.07C392.71 155.96 392.31 155.89 390.74 156.69C389.21 157.47 388.26 159.02 387.3 160.36C386.93 160.87 386.64 161.4 386.26 161.9C385.82 162.47 385.32 163.39 384.67 163.68C383.88 164.04 382.75 163.9 381.96 163.65C379.9 163.01 377.19 160.98 375.57 159.61C373.2 157.6 371.52 155.47 370.92 153.77C370.3 152.02 371.48 150.67 372.46 149.6C373.38 148.59 375.22 146.61 376.36 143.93C379.8 135.77 378.36 127.59 382.66 121.31C384.89 118.04 386.77 115.89 389.17 113.31C390.6 111.77 391.98 110.75 394.23 109.99C394.34 109.95 394.45 109.91 394.56 109.87C394.21 107.37 393.32 104.4 389.65 101.32C386.92 99.0301 383.41 96.4601 380.34 93.0601C372.17 84.0201 368.15 76.9401 363.34 78.3601C363.34 76.2601 365.72 74.5301 369.47 74.5301C373.52 74.5301 374.63 77.8601 377.14 77.9001C378.9 77.9601 379.76 76.4201 379.76 75.2901C379.76 68.9401 369.67 70.9301 361.29 71.1301C346.7 71.4801 336.88 61.7801 334.69 53.2501C341.05 55.0901 347.51 50.0901 352.72 50.0501C357.93 50.0001 362.65 53.2401 364.68 53.7501C369.05 54.8401 370.67 49.3401 365.02 48.7301C346.7 46.7701 346.45 32.3401 353.56 23.7701C364.69 37.1201 380.82 20.5801 384.66 45.9301C385.29 50.1101 390.28 49.1001 390.01 46.0501C389.56 41.1101 384.38 39.6201 384.38 31.2701C384.38 28.6001 386.54 24.6801 391.28 21.3501C392.59 29.6901 424.89 34.7401 409.97 50.7001C405.55 55.4201 413.62 58.8501 414.37 52.5201C414.78 49.0901 418.74 45.0701 426.67 44.9001C424.77 49.5701 428.9 56.0301 428.9 61.3601C428.9 69.4801 425.61 71.1101 425.61 75.3601C425.61 79.6101 431.91 78.6801 430.59 73.6101C432.56 74.4201 434.47 77.7501 430.86 84.2201L430.83 84.2301ZM405.95 145.7C405.93 145.38 405.61 144.93 404.73 144.88C404.31 144.86 402.3 144.68 400.31 144.84C398.69 144.97 397.47 145.26 396.68 145.5C396.65 144.96 396.63 144.46 396.6 144.04C396.6 143.92 396.48 141.58 396.4 140.1C396.35 139.17 395.64 139.12 395.24 139.61C394.72 140.24 392.61 143.37 387.06 146.49C385.98 147.1 384.87 147.09 385.17 146.37C385.48 145.62 389.96 141.36 390.67 134.71C391.22 129.58 389.6 125.07 389.94 123.69C390.37 121.98 391.69 121.78 392.67 120.33C393.59 118.97 393.75 117.4 394.19 117.05C394.67 116.66 396.23 116.96 398.33 116.11C400.86 115.09 403.97 111.84 403.97 109C403.97 108.27 403.44 107.67 402.62 108.23C398.08 111.38 393.24 112.37 392.11 113.4C389.27 116 385.6 121.09 384.68 122.63C383.4 124.8 382.04 128.3 381.45 131.53C380.38 137.44 379.72 144.77 375.43 149.6C374.02 151.18 373.3 152.01 373.47 153.26C373.94 156.7 379.68 160.21 381.35 160.85C384.52 162.07 386.57 158.35 386.74 157.1C387 155.24 386.29 154.32 386.81 153.85C387.09 153.6 387.66 153.67 387.99 153.76C389.86 154.26 391.75 153.59 393.4 152.71C394.56 152.08 396.97 150.24 397.27 149.73C397.04 149.21 396.9 148.29 396.81 147.28C397.59 147.04 398.83 146.75 400.46 146.62C402.48 146.45 404.58 146.62 404.88 146.66C405.85 146.76 405.99 146.04 405.96 145.7H405.95ZM409.71 136.86C409.75 135.69 409.1 135.07 407.72 135.49C407.23 135.64 401.7 138.22 401.13 138.47C400.31 138.84 399.32 139.51 399.49 140.51C399.62 141.23 400.4 141.57 401.06 141.58C402 141.59 405.51 140.86 406.57 140.5C407.81 140.07 409.59 139.83 409.7 136.86H409.71ZM411.18 129.51C411.08 128.18 409.87 127.98 408.7 128.27C406.09 128.91 400.73 131.46 400.08 131.78C398.35 132.64 397.38 133.45 397.19 134.04C396.85 135.08 397.41 135.84 398.19 136.04C399.16 136.29 400.6 135.87 402.44 135.26C403.11 135.04 407.03 133.8 407.85 133.49C409.98 132.71 411.4 132.48 411.18 129.5V129.51ZM410.73 121.98C408.86 122.8 407.1 123.33 405.07 123.44C404.64 123.46 404.19 123.32 403.76 123.37C403.37 123.42 401.25 124.55 399.93 125.41C397.74 126.83 399.05 129.2 400.96 128.69C402.74 128.21 407.22 126.82 407.9 126.59C410.15 125.85 411.49 125.44 412.05 123.92C412.45 122.84 412.12 121.38 410.75 121.98H410.73ZM404.4 118.84C403.94 119.74 404.07 120.86 405.68 120.86C408.01 120.86 414.32 117.34 414.62 115.18C414.79 113.91 413.76 113.05 412.56 113.09C410.7 113.15 405.25 117.23 404.4 118.85V118.84Z" fill="#B15533"/>
</g>
<defs>
<clipPath id="clip0_677_12225">
<rect width="432.86" height="163.92" fill="white"/>
</clipPath>
</defs>
</svg>